<svg width="600" height="600" viewBox="0 0 600 600" fill="none" xmlns="http://www.w3.org/2000/svg">
  <style>
    .logo-bg { fill: #282828; }
    .logo-v { fill: #ffffff; }
    @media (prefers-color-scheme: dark) {
      .logo-bg { fill: #ffffff; }
      .logo-v { fill: #282828; }
    }
  </style>
  <path class="logo-bg" fill-rule="evenodd" clip-rule="evenodd" d="M300 600C465.685 600 600 465.685 600 300C600 134.315 465.685 0 300 0C134.315 0 0 134.315 0 300C0 465.685 134.315 600 300 600ZM141.168 154.017L254.268 459.472H254.285C261.052 477.76 278.565 489.919 298.141 489.919C317.685 489.919 335.165 477.826 341.965 459.587L455.973 154.017H388.579L298.323 408.667L207.605 154.017H141.168Z"/>
  <path class="logo-v" d="M141.168 154.017H207.605L298.323 408.667L388.579 154.017H455.973L341.965 459.587C335.165 477.826 317.685 489.919 298.141 489.919C278.565 489.919 261.052 477.76 254.285 459.472L141.168 154.017Z"/>
</svg>
